<?xml version="1.0" encoding="UTF-8" standalone="no"?>
<svg xmlns="http://www.w3.org/2000/svg" xmlns:xlink="http://www.w3.org/1999/xlink" width="2000" height="2000" viewBox="0 0 100 100" version="1.1">
<path d="M44.2,44.2a95,95 0 0 0-8.45-34.35h28.55a95,95 0 0 0-8.45,34.35a95,95 0 0 0 34.35-8.45v28.55a95,95 0 0 0-34.35-8.45a95,95 0 0 0 8.45,34.35h-28.55a95,95 0 0 0 8.45-34.35a95,95 0 0 0-34.35,8.45v-28.55a95,95 0 0 0 34.35,8.45z" id="cross"/>
<use xlink:href="#cross" stroke="#fff" stroke-width="19.7" fill="none"/>
<use xlink:href="#cross" stroke="#000" stroke-width="10.7" fill="none"/>
<use xlink:href="#cross" stroke="#fff" stroke-width="5.1" fill="none"/>
<use xlink:href="#cross"/>
</svg>
